<svg width="38" height="50" viewBox="0 0 38 50" xmlns="http://www.w3.org/2000/svg"><title>balloon</title><path d="M22.644 45.384l2.15 3.06c.21.315.227.72.04 1.05-.184.328-.54.524-.916.506H14.08c-.377.018-.73-.178-.917-.507-.185-.33-.17-.734.04-1.048l2.152-3.062C8.915 42.683 0 31.49 0 21 0 8.97 8.503 0 19 0s19 8.97 19 21c0 10.49-8.917 21.685-15.356 24.384zM13.23 5.077C7.694 8.023 4.166 13.712 3.987 19.98c0 .28.114.547.316.74.202.194.474.297.754.286H7.89c.563.014 1.034-.42 1.064-.982.17-5.44 1.876-10.703 4.96-14.345.313-.37-.238-.83-.685-.603z" fill-rule="nonzero" fill="#FF33B1"/></svg>