<?xml version="1.0" encoding="UTF-8"?>
<svg width="417px" height="110px" viewBox="0 0 417 110" version="1.1" xmlns="http://www.w3.org/2000/svg" xmlns:xlink="http://www.w3.org/1999/xlink">
    <!-- Generator: Sketch 62 (91390) - https://sketch.com -->
    <title>juno_logo_color</title>
    <desc>Created with Sketch.</desc>
    <defs>
        <path d="M106.237793,108.668945 C112.414551,108.668945 117.456055,106.789062 121.362305,103.029297 C125.268555,99.2695312 127.22168,94.0449219 127.22168,87.3554688 L127.22168,87.3554688 L127.22168,86.2568359 C127.22168,85.6708984 127.197266,85.2558594 127.148438,85.0117188 C125.195313,83.7910156 123.828125,82.0576172 123.046875,79.8115234 C122.265625,77.5654297 121.875,74.6601562 121.875,71.0957031 L121.875,71.0957031 L122.167969,56.5205078 C122.167969,46.9990234 119.775391,39.5039062 114.990234,34.0351562 C110.107422,28.5664062 103.24707,25.8320312 94.4091797,25.8320312 C90.4052734,25.8320312 86.5600586,26.6254883 82.8735352,28.2124023 C79.1870117,29.7993164 76.1962891,32.1552734 73.9013672,35.2802734 C72.2412109,32.7900391 69.7143555,30.5927734 66.3208008,28.6884766 C62.9272461,26.7841797 58.984375,25.8320312 54.4921875,25.8320312 C48.5839844,25.8320312 43.4326172,27.0771484 39.0380859,29.5673828 C35.2783203,31.7646484 32.3242188,34.71875 30.1757813,38.4296875 C28.4667969,38.4296875 27.6123047,37.6728516 27.6123047,36.1591797 C27.6123047,34.8408203 28.6865234,33.1806641 30.8349609,31.1787109 C28.3935547,28.5908203 25.4394531,27.296875 21.9726563,27.296875 L21.9726563,27.296875 L4.32128906,27.296875 C1.44042969,31.6425781 5.68434189e-14,36.7817383 5.68434189e-14,42.7143555 C5.68434189e-14,48.6469727 1.44042969,53.6396484 4.32128906,57.6923828 L4.32128906,57.6923828 L4.32128906,92.7021484 C4.32128906,97.7314453 6.34765625,101.735352 10.4003906,104.713867 C13.9160156,107.301758 18.2373047,108.595703 23.3642578,108.595703 C32.0068359,108.595703 38.7207031,106.129883 43.5058594,101.198242 C42.0410156,98.2197266 41.3085938,93.9960938 41.3085938,88.5273438 L41.3085938,88.5273438 L41.3085938,69.1181641 L39.9902344,58.2050781 C40.4785156,57.8144531 41.1376953,57.6191406 41.9677734,57.6191406 C44.1162109,57.6191406 45.1904297,59.2548828 45.1904297,62.5263672 L45.1904297,62.5263672 L45.1904297,88.234375 C45.1904297,95.6074219 47.1435547,101.00293 51.0498047,104.420898 C54.2724609,107.25293 58.8134766,108.668945 64.6728516,108.668945 C68.2861328,108.668945 71.8383789,107.973145 75.3295898,106.581543 C78.8208008,105.189941 81.7382813,103.249023 84.0820313,100.758789 C81.8847656,97.3408203 80.7861328,92.3115234 80.7861328,85.6708984 L80.7861328,85.6708984 L80.7861328,69.1181641 L79.4677734,58.2050781 C79.9560547,57.8144531 80.6152344,57.6191406 81.4453125,57.6191406 C83.59375,57.6191406 84.6679688,59.2548828 84.6679688,62.5263672 L84.6679688,62.5263672 L84.6679688,85.6708984 C84.6679688,93.7275391 86.8896484,99.7089844 91.3330078,103.615234 C95.0927734,106.984375 100.061035,108.668945 106.237793,108.668945 Z M191.4425,108.668945 C197.448359,108.668945 202.160273,106.959961 205.578242,103.541992 C209.338008,99.8798828 211.217891,94.484375 211.217891,87.3554688 L211.217891,87.3554688 L211.216986,85.8173828 C211.212164,85.2531467 211.188051,84.8625217 211.144648,84.6455078 C207.629023,82.4482422 205.871211,77.7119141 205.871211,70.4365234 L205.871211,70.4365234 L205.871211,32.2773438 C204.211055,30.4707031 201.830684,29.0180664 198.730098,27.9194336 C195.629512,26.8208008 192.028438,26.2714844 187.926875,26.2714844 C180.651484,26.2714844 174.425898,27.8339844 169.250117,30.9589844 L169.250117,30.9589844 L169.250117,67.140625 C169.250117,70.5585938 169.494258,73.0732422 169.982539,74.6845703 C169.298945,75.1728516 168.66418,75.4169922 168.078242,75.4169922 C166.271602,75.4169922 165.368281,73.0488281 165.368281,68.3125 L165.368281,68.3125 L165.368281,44.5820312 C165.368281,38.7714844 163.64709,34.4379883 160.204707,31.581543 C156.762324,28.7250977 152.013789,27.296875 145.959102,27.296875 L145.959102,27.296875 L129.84582,27.296875 C128.332148,29.5429688 127.233516,32.1064453 126.549922,34.9873047 C125.866328,37.8681641 125.524531,40.6513672 125.524531,43.3369141 C125.524531,48.5615234 126.769648,53.3466797 129.259883,57.6923828 L129.259883,57.6923828 L129.259883,76.0761719 C129.259883,84.1816406 130.895625,90.8710938 134.167109,96.1445312 C136.852656,100.587891 140.710078,103.883789 145.739375,106.032227 C149.792109,107.790039 153.954707,108.668945 158.227168,108.668945 C162.499629,108.668945 165.734492,108.27832 167.931758,107.49707 C170.129023,106.71582 172.008906,105.69043 173.571406,104.420898 C172.448359,103.297852 171.886836,102.174805 171.886836,101.051758 C171.886836,99.4404297 172.716914,98.6347656 174.37707,98.6347656 C175.890742,101.90625 178.173457,104.396484 181.225215,106.105469 C184.276973,107.814453 187.682734,108.668945 191.4425,108.668945 Z M249.29125,109.621094 C260.814688,109.621094 270.018789,107.082031 276.903555,102.003906 C283.78832,96.9257812 287.230703,89.40625 287.230703,79.4453125 C287.230703,73.0488281 285.521719,67.7509766 282.10375,63.5517578 C279.027578,59.8408203 275.060293,57.1430664 270.201895,55.4584961 C265.343496,53.7739258 260.131094,52.9316406 254.564688,52.9316406 L254.564688,52.9316406 L252.806875,52.9316406 C251.927969,52.9316406 251.219961,52.9560547 250.682852,53.0048828 C250.634023,52.9560547 250.609609,52.8095703 250.609609,52.5654297 L250.609609,52.5654297 L250.609609,52.1992188 C250.609609,51.0761719 251.244375,50.3193359 252.513906,49.9287109 C253.246328,49.7333984 255.052969,49.6357422 257.933828,49.6357422 C260.814688,49.6357422 264.049551,50.0874023 267.638418,50.9907227 C271.227285,51.894043 274.266836,53.0292969 276.75707,54.3964844 C280.028555,51.2226562 281.664297,46.6572266 281.664297,40.7001953 C281.664297,36.7939453 281.20043,33.8398438 280.272695,31.8378906 C276.561758,29.7382812 272.106191,28.0537109 266.905996,26.7841797 C261.705801,25.5146484 256.102773,24.8798828 250.096914,24.8798828 C237.889883,24.8798828 228.295156,27.7607422 221.312734,33.5224609 C215.013906,38.7470703 211.864492,45.5830078 211.864492,54.0302734 C211.864492,62.4775391 215.380117,69.0205078 222.411367,73.6591797 C228.612539,77.7607422 236.888906,79.8115234 247.240469,79.8115234 L247.240469,79.8115234 L248.046133,79.8115234 C248.534414,79.8115234 248.949453,79.7871094 249.29125,79.7382812 C249.437734,80.1289062 249.510977,80.6171875 249.510977,81.203125 C249.510977,82.4726562 248.363516,83.1074219 246.068594,83.1074219 C240.355703,83.1074219 234.947988,82.2895508 229.845449,80.6538086 C224.74291,79.0180664 220.848867,77.0771484 218.16332,74.8310547 C216.698477,75.7587891 215.380117,77.3579102 214.208242,79.628418 C213.036367,81.8989258 212.45043,84.4013672 212.45043,87.1357422 C212.45043,94.5087891 215.709707,100.099609 222.228262,103.908203 C228.746816,107.716797 237.767813,109.621094 249.29125,109.621094 Z M351.414902,108.668945 C357.542832,108.668945 362.547715,106.80127 366.429551,103.065918 C370.311387,99.3305664 372.252305,94.09375 372.252305,87.3554688 L372.252305,87.3554688 L372.252305,86.0371094 C372.252305,85.3535156 372.227891,84.8896484 372.179063,84.6455078 C370.225938,83.4248047 368.85875,81.7402344 368.0775,79.5917969 C367.29625,77.4433594 366.905625,74.6113281 366.905625,71.0957031 L366.905625,71.0957031 L367.125352,56.8134766 C367.125352,49.4404297 365.343125,43.3125 361.778672,38.4296875 C358.800156,34.4257812 354.723008,31.4472656 349.547227,29.4941406 C345.445664,27.9316406 340.831406,27.1503906 335.704453,27.1503906 C330.5775,27.1503906 326.146348,27.9560547 322.410996,29.5673828 C318.675645,31.1787109 315.782578,33.1806641 313.731797,35.5732422 C313.194688,35.4755859 312.73082,35.2192383 312.340195,34.8041992 C311.94957,34.3891602 311.754258,33.9130859 311.754258,33.3759766 C311.754258,31.7646484 313.438828,29.9824219 316.807969,28.0292969 C320.714219,25.8320312 324.791367,24.6113281 329.039414,24.3671875 L329.039414,24.3671875 L329.039414,17.4091797 C329.039414,12.5751953 326.964219,8.86425781 322.813828,6.27636719 C319.151719,4.07910156 314.513047,2.98046875 308.897813,2.98046875 C305.528672,2.98046875 302.196152,3.41992188 298.900254,4.29882812 C295.604355,5.17773438 292.784531,6.30078125 290.440781,7.66796875 L290.440781,7.66796875 L290.440781,93.1416016 C290.440781,97.9755859 292.540391,101.857422 296.739609,104.787109 C300.352891,107.375 304.625352,108.668945 309.556992,108.668945 C318.19957,108.668945 324.913438,106.203125 329.698594,101.271484 C327.208359,96.7304688 325.963242,91.7011719 325.963242,86.1835938 C325.963242,80.6660156 326.402695,75.4414062 327.281602,70.5097656 L327.281602,70.5097656 L326.329453,58.5712891 C327.013047,58.1806641 327.806504,57.9853516 328.709824,57.9853516 C329.613145,57.9853516 330.321152,58.4003906 330.833848,59.2304688 C331.346543,60.0605469 331.602891,61.4277344 331.602891,63.3320312 C331.602891,65.2363281 331.529648,66.6767578 331.383164,67.6533203 C331.23668,68.6298828 331.102402,69.6796875 330.980332,70.8027344 C330.858262,71.9257812 330.638535,73.793457 330.321152,76.4057617 C330.00377,79.0180664 329.845078,82.0332031 329.845078,85.4511719 C329.845078,93.5078125 332.066758,99.5136719 336.510117,103.46875 C340.318711,106.935547 345.286973,108.668945 351.414902,108.668945 Z M409.373516,33.6547852 C414.73396,27.2306751 413.914531,25.78125 413.914531,20.9472656 C413.914531,14.9414063 411.924785,9.94873047 407.945293,5.96923828 C403.965801,1.98974609 399.03416,0 393.150371,0 C387.266582,0 382.29832,1.953125 378.245586,5.859375 C374.192852,9.765625 372.166484,14.7949219 372.166484,20.9472656 C372.166484,24.5117187 373.020977,27.6245117 374.729961,30.2856445 C376.438945,32.9467773 378.343242,34.8144531 380.442852,35.8886719 C379.319805,36.4746094 404.013071,40.0788952 409.373516,33.6547852 Z M396.665996,104.668945 C402.69627,104.668945 407.518047,106.959961 411.131328,103.541992 C415.037578,99.9287109 416.990703,94.5332031 416.990703,87.3554688 L416.990703,86.0371094 C416.990703,85.3535156 416.966289,84.8896484 416.917461,84.6455078 C413.401836,82.4482422 411.644023,77.7119141 411.644023,70.4365234 L411.644023,37.6567416 C411.20457,37.1196322 403.271656,40.3555115 393.334636,40.3555115 C383.397616,40.3555115 375.242656,37.0219759 374.36375,37.6567416 C373.777812,38.0799187 373.777812,53.6940126 374.36375,84.4990234 C374.36375,92.8486328 376.82957,99.1962891 381.761211,103.541992 C385.667461,106.959961 390.635723,104.668945 396.665996,104.668945 Z" id="path-1"></path>
    </defs>
    <g id="Website" stroke="none" stroke-width="1" fill="none" fill-rule="evenodd">
        <g id="Desktop-HD" transform="translate(-511.000000, -100.000000)">
            <g id="juno_logo_color" transform="translate(511.000000, 100.000000)">
                <mask id="mask-2" fill="white">
                    <use xlink:href="#path-1"></use>
                </mask>
                <use id="Mask" fill="#FFFFFF" fill-rule="nonzero" xlink:href="#path-1"></use>
            </g>
        </g>
    </g>
</svg>