<svg width="50" height="50" viewBox="0 0 50 50" xmlns="http://www.w3.org/2000/svg"><title>magic-wand</title><path d="M2.465 48.535C3.402 49.473 4.675 50 6 50c1.326 0 2.597-.527 3.535-1.465l27-27C37.473 20.598 38 19.325 38 18c0-1.327-.527-2.598-1.465-3.536l-1-1C34.597 12.526 33.325 12 32 12c-1.326 0-2.598.526-3.535 1.464l-27 27C.527 41.4 0 42.674 0 44c0 1.325.527 2.597 1.465 3.534l1 1zm21.828-25.242l7-7c.187-.188.442-.293.707-.293.265 0 .52.105.707.293l1 1c.188.187.293.442.293.707 0 .265-.105.52-.293.707l-7 7c-.187.187-.442.293-.707.293-.265 0-.52-.106-.707-.293l-1-1C24.105 24.52 24 24.265 24 24c0-.265.105-.52.293-.707zM23.136 8.455c-.806-.154-1.436-.785-1.59-1.59l-.452-2.373C21.04 4.207 20.79 4 20.5 4c-.29 0-.54.207-.593.492l-.452 2.373c-.154.806-.784 1.436-1.59 1.59l-2.373.452c-.285.054-.49.303-.49.593s.205.54.49.594l2.373.452c.806.153 1.436.784 1.59 1.59l.452 2.373c.054.284.303.49.593.49s.54-.206.594-.49l.452-2.374c.154-.806.784-1.437 1.59-1.59l2.373-.452c.284-.054.49-.304.49-.594s-.206-.54-.49-.593l-2.374-.453zm24 16c-.806-.154-1.436-.785-1.59-1.59l-.452-2.373C45.04 20.207 44.79 20 44.5 20c-.29 0-.54.207-.593.492l-.452 2.373c-.154.806-.784 1.436-1.59 1.59l-2.373.452c-.285.054-.49.303-.49.593s.205.54.49.594l2.373.452c.806.153 1.436.784 1.59 1.59l.452 2.373c.054.284.303.49.593.49s.54-.206.594-.49l.452-2.374c.154-.806.784-1.437 1.59-1.59l2.373-.452c.284-.055.49-.304.49-.594s-.206-.54-.49-.593l-2.374-.453zm-3.488-20.57L43.082.494C43.036.208 42.79 0 42.5 0c-.29 0-.536.208-.582.493l-.566 3.393c-.21 1.265-1.2 2.256-2.466 2.466l-3.393.566c-.285.047-.494.293-.494.582 0 .29.208.535.493.582l3.393.566c1.265.21 2.256 1.2 2.466 2.466l.566 3.393c.046.285.293.495.582.495.29 0 .536-.21.582-.495l.566-3.393c.21-1.265 1.2-2.255 2.466-2.466l3.393-.566c.285-.047.494-.293.494-.582 0-.29-.208-.535-.493-.582l-3.393-.566c-1.265-.21-2.256-1.2-2.466-2.466z" fill-rule="nonzero" fill="#FF33B1"/></svg>